ISO-10303-21;
HEADER;
/* Generated by software containing ST-Developer
 * from STEP Tools, Inc. (www.steptools.com) 
 */

FILE_DESCRIPTION(
/* description */ (''),
/* implementation_level */ '2;1');

FILE_NAME(
/* name */ 'Bottom piece.step',
/* time_stamp */ '2026-10-07T09:03:05+10:30',
/* author */ (''),
/* organization */ (''),
/* preprocessor_version */ 'ST-DEVELOPER v20.2',
/* originating_system */ 'Autodesk Translation Framework v15.15.0.0',
/* authorisation */ '');

FILE_SCHEMA (('AUTOMOTIVE_DESIGN { 1 0 10303 214 3 1 1 }'));
ENDSEC;

DATA;
#10=MECHANICAL_DESIGN_GEOMETRIC_PRESENTATION_REPRESENTATION('',(#13),#621);
#11=SHAPE_REPRESENTATION_RELATIONSHIP('SRR','None',#628,#12);
#12=ADVANCED_BREP_SHAPE_REPRESENTATION('',(#14),#620);
#13=STYLED_ITEM('',(#638),#14);
#14=MANIFOLD_SOLID_BREP('botton piece',#365);
#15=FACE_BOUND('',#56,.T.);
#16=FACE_BOUND('',#57,.T.);
#17=FACE_BOUND('',#58,.T.);
#18=FACE_BOUND('',#59,.T.);
#19=FACE_BOUND('',#60,.T.);
#20=FACE_BOUND('',#65,.T.);
#21=FACE_BOUND('',#66,.T.);
#22=FACE_BOUND('',#67,.T.);
#23=FACE_BOUND('',#68,.T.);
#24=PLANE('',#382);
#25=PLANE('',#390);
#26=PLANE('',#395);
#27=PLANE('',#401);
#28=PLANE('',#403);
#29=PLANE('',#404);
#30=PLANE('',#409);
#31=PLANE('',#410);
#32=PLANE('',#411);
#33=PLANE('',#412);
#34=PLANE('',#413);
#35=FACE_OUTER_BOUND('',#54,.T.);
#36=FACE_OUTER_BOUND('',#55,.T.);
#37=FACE_OUTER_BOUND('',#61,.T.);
#38=FACE_OUTER_BOUND('',#62,.T.);
#39=FACE_OUTER_BOUND('',#63,.T.);
#40=FACE_OUTER_BOUND('',#64,.T.);
#41=FACE_OUTER_BOUND('',#69,.T.);
#42=FACE_OUTER_BOUND('',#70,.T.);
#43=FACE_OUTER_BOUND('',#71,.T.);
#44=FACE_OUTER_BOUND('',#72,.T.);
#45=FACE_OUTER_BOUND('',#73,.T.);
#46=FACE_OUTER_BOUND('',#74,.T.);
#47=FACE_OUTER_BOUND('',#75,.T.);
#48=FACE_OUTER_BOUND('',#76,.T.);
#49=FACE_OUTER_BOUND('',#77,.T.);
#50=FACE_OUTER_BOUND('',#78,.T.);
#51=FACE_OUTER_BOUND('',#79,.T.);
#52=FACE_OUTER_BOUND('',#80,.T.);
#53=FACE_OUTER_BOUND('',#81,.T.);
#54=EDGE_LOOP('',(#242,#243,#244,#245));
#55=EDGE_LOOP('',(#246,#247,#248,#249,#250,#251,#252,#253));
#56=EDGE_LOOP('',(#254));
#57=EDGE_LOOP('',(#255));
#58=EDGE_LOOP('',(#256,#257,#258,#259));
#59=EDGE_LOOP('',(#260));
#60=EDGE_LOOP('',(#261));
#61=EDGE_LOOP('',(#262,#263,#264,#265));
#62=EDGE_LOOP('',(#266,#267,#268,#269));
#63=EDGE_LOOP('',(#270,#271,#272,#273));
#64=EDGE_LOOP('',(#274,#275,#276,#277,#278,#279,#280,#281));
#65=EDGE_LOOP('',(#282));
#66=EDGE_LOOP('',(#283));
#67=EDGE_LOOP('',(#284));
#68=EDGE_LOOP('',(#285));
#69=EDGE_LOOP('',(#286,#287,#288,#289));
#70=EDGE_LOOP('',(#290,#291,#292,#293));
#71=EDGE_LOOP('',(#294,#295,#296,#297));
#72=EDGE_LOOP('',(#298,#299,#300,#301));
#73=EDGE_LOOP('',(#302,#303,#304,#305));
#74=EDGE_LOOP('',(#306,#307,#308,#309));
#75=EDGE_LOOP('',(#310,#311,#312,#313));
#76=EDGE_LOOP('',(#314,#315,#316,#317));
#77=EDGE_LOOP('',(#318,#319,#320,#321));
#78=EDGE_LOOP('',(#322,#323,#324,#325));
#79=EDGE_LOOP('',(#326,#327,#328,#329));
#80=EDGE_LOOP('',(#330,#331,#332,#333));
#81=EDGE_LOOP('',(#334,#335,#336,#337));
#82=LINE('',#524,#114);
#83=LINE('',#527,#115);
#84=LINE('',#530,#116);
#85=LINE('',#534,#117);
#86=LINE('',#538,#118);
#87=LINE('',#541,#119);
#88=LINE('',#548,#120);
#89=LINE('',#550,#121);
#90=LINE('',#552,#122);
#91=LINE('',#553,#123);
#92=LINE('',#560,#124);
#93=LINE('',#561,#125);
#94=LINE('',#565,#126);
#95=LINE('',#568,#127);
#96=LINE('',#571,#128);
#97=LINE('',#573,#129);
#98=LINE('',#575,#130);
#99=LINE('',#578,#131);
#100=LINE('',#588,#132);
#101=LINE('',#590,#133);
#102=LINE('',#594,#134);
#103=LINE('',#595,#135);
#104=LINE('',#596,#136);
#105=LINE('',#599,#137);
#106=LINE('',#600,#138);
#107=LINE('',#602,#139);
#108=LINE('',#604,#140);
#109=LINE('',#606,#141);
#110=LINE('',#608,#142);
#111=LINE('',#611,#143);
#112=LINE('',#612,#144);
#113=LINE('',#614,#145);
#114=VECTOR('',#420,10.);
#115=VECTOR('',#423,10.);
#116=VECTOR('',#426,10.);
#117=VECTOR('',#429,10.);
#118=VECTOR('',#432,10.);
#119=VECTOR('',#435,10.);
#120=VECTOR('',#440,10.);
#121=VECTOR('',#441,10.);
#122=VECTOR('',#442,10.);
#123=VECTOR('',#443,10.);
#124=VECTOR('',#450,10.);
#125=VECTOR('',#451,10.);
#126=VECTOR('',#456,10.);
#127=VECTOR('',#459,10.);
#128=VECTOR('',#462,10.);
#129=VECTOR('',#465,10.);
#130=VECTOR('',#466,10.);
#131=VECTOR('',#469,10.);
#132=VECTOR('',#480,10.);
#133=VECTOR('',#483,10.);
#134=VECTOR('',#486,10.);
#135=VECTOR('',#487,10.);
#136=VECTOR('',#488,10.);
#137=VECTOR('',#491,10.);
#138=VECTOR('',#492,10.);
#139=VECTOR('',#495,1.45);
#140=VECTOR('',#498,1.45);
#141=VECTOR('',#501,1.45);
#142=VECTOR('',#504,1.45);
#143=VECTOR('',#507,10.);
#144=VECTOR('',#508,10.);
#145=VECTOR('',#511,10.);
#146=CIRCLE('',#380,5.);
#147=CIRCLE('',#381,5.);
#148=CIRCLE('',#383,5.);
#149=CIRCLE('',#384,5.);
#150=CIRCLE('',#385,5.);
#151=CIRCLE('',#386,1.45);
#152=CIRCLE('',#387,1.45);
#153=CIRCLE('',#388,1.45);
#154=CIRCLE('',#389,1.45);
#155=CIRCLE('',#392,5.);
#156=CIRCLE('',#394,5.);
#157=CIRCLE('',#396,5.);
#158=CIRCLE('',#397,1.45);
#159=CIRCLE('',#398,1.45);
#160=CIRCLE('',#399,1.45);
#161=CIRCLE('',#400,1.45);
#162=VERTEX_POINT('',#520);
#163=VERTEX_POINT('',#521);
#164=VERTEX_POINT('',#523);
#165=VERTEX_POINT('',#525);
#166=VERTEX_POINT('',#529);
#167=VERTEX_POINT('',#531);
#168=VERTEX_POINT('',#533);
#169=VERTEX_POINT('',#535);
#170=VERTEX_POINT('',#537);
#171=VERTEX_POINT('',#539);
#172=VERTEX_POINT('',#542);
#173=VERTEX_POINT('',#544);
#174=VERTEX_POINT('',#546);
#175=VERTEX_POINT('',#547);
#176=VERTEX_POINT('',#549);
#177=VERTEX_POINT('',#551);
#178=VERTEX_POINT('',#554);
#179=VERTEX_POINT('',#556);
#180=VERTEX_POINT('',#559);
#181=VERTEX_POINT('',#563);
#182=VERTEX_POINT('',#567);
#183=VERTEX_POINT('',#569);
#184=VERTEX_POINT('',#574);
#185=VERTEX_POINT('',#576);
#186=VERTEX_POINT('',#579);
#187=VERTEX_POINT('',#581);
#188=VERTEX_POINT('',#583);
#189=VERTEX_POINT('',#585);
#190=VERTEX_POINT('',#592);
#191=VERTEX_POINT('',#593);
#192=VERTEX_POINT('',#598);
#193=VERTEX_POINT('',#610);
#194=EDGE_CURVE('',#162,#163,#146,.T.);
#195=EDGE_CURVE('',#163,#164,#82,.T.);
#196=EDGE_CURVE('',#164,#165,#147,.T.);
#197=EDGE_CURVE('',#165,#162,#83,.T.);
#198=EDGE_CURVE('',#162,#166,#84,.T.);
#199=EDGE_CURVE('',#167,#166,#148,.T.);
#200=EDGE_CURVE('',#167,#168,#85,.T.);
#201=EDGE_CURVE('',#169,#168,#149,.T.);
#202=EDGE_CURVE('',#169,#170,#86,.T.);
#203=EDGE_CURVE('',#171,#170,#150,.T.);
#204=EDGE_CURVE('',#171,#163,#87,.T.);
#205=EDGE_CURVE('',#172,#172,#151,.T.);
#206=EDGE_CURVE('',#173,#173,#152,.T.);
#207=EDGE_CURVE('',#174,#175,#88,.T.);
#208=EDGE_CURVE('',#175,#176,#89,.T.);
#209=EDGE_CURVE('',#176,#177,#90,.T.);
#210=EDGE_CURVE('',#177,#174,#91,.T.);
#211=EDGE_CURVE('',#178,#178,#153,.T.);
#212=EDGE_CURVE('',#179,#179,#154,.T.);
#213=EDGE_CURVE('',#165,#180,#92,.T.);
#214=EDGE_CURVE('',#166,#180,#93,.T.);
#215=EDGE_CURVE('',#180,#181,#155,.T.);
#216=EDGE_CURVE('',#181,#167,#94,.T.);
#217=EDGE_CURVE('',#170,#182,#95,.T.);
#218=EDGE_CURVE('',#182,#183,#156,.T.);
#219=EDGE_CURVE('',#183,#171,#96,.T.);
#220=EDGE_CURVE('',#183,#164,#97,.T.);
#221=EDGE_CURVE('',#184,#182,#98,.T.);
#222=EDGE_CURVE('',#185,#184,#157,.T.);
#223=EDGE_CURVE('',#181,#185,#99,.T.);
#224=EDGE_CURVE('',#186,#186,#158,.T.);
#225=EDGE_CURVE('',#187,#187,#159,.T.);
#226=EDGE_CURVE('',#188,#188,#160,.T.);
#227=EDGE_CURVE('',#189,#189,#161,.T.);
#228=EDGE_CURVE('',#184,#169,#100,.T.);
#229=EDGE_CURVE('',#168,#185,#101,.T.);
#230=EDGE_CURVE('',#190,#191,#102,.T.);
#231=EDGE_CURVE('',#190,#177,#103,.T.);
#232=EDGE_CURVE('',#191,#176,#104,.T.);
#233=EDGE_CURVE('',#192,#190,#105,.T.);
#234=EDGE_CURVE('',#192,#174,#106,.T.);
#235=EDGE_CURVE('',#179,#187,#107,.T.);
#236=EDGE_CURVE('',#178,#186,#108,.T.);
#237=EDGE_CURVE('',#173,#189,#109,.T.);
#238=EDGE_CURVE('',#172,#188,#110,.T.);
#239=EDGE_CURVE('',#191,#193,#111,.T.);
#240=EDGE_CURVE('',#193,#175,#112,.T.);
#241=EDGE_CURVE('',#193,#192,#113,.T.);
#242=ORIENTED_EDGE('',*,*,#194,.T.);
#243=ORIENTED_EDGE('',*,*,#195,.T.);
#244=ORIENTED_EDGE('',*,*,#196,.T.);
#245=ORIENTED_EDGE('',*,*,#197,.T.);
#246=ORIENTED_EDGE('',*,*,#194,.F.);
#247=ORIENTED_EDGE('',*,*,#198,.T.);
#248=ORIENTED_EDGE('',*,*,#199,.F.);
#249=ORIENTED_EDGE('',*,*,#200,.T.);
#250=ORIENTED_EDGE('',*,*,#201,.F.);
#251=ORIENTED_EDGE('',*,*,#202,.T.);
#252=ORIENTED_EDGE('',*,*,#203,.F.);
#253=ORIENTED_EDGE('',*,*,#204,.T.);
#254=ORIENTED_EDGE('',*,*,#205,.T.);
#255=ORIENTED_EDGE('',*,*,#206,.T.);
#256=ORIENTED_EDGE('',*,*,#207,.T.);
#257=ORIENTED_EDGE('',*,*,#208,.T.);
#258=ORIENTED_EDGE('',*,*,#209,.T.);
#259=ORIENTED_EDGE('',*,*,#210,.T.);
#260=ORIENTED_EDGE('',*,*,#211,.T.);
#261=ORIENTED_EDGE('',*,*,#212,.T.);
#262=ORIENTED_EDGE('',*,*,#197,.F.);
#263=ORIENTED_EDGE('',*,*,#213,.T.);
#264=ORIENTED_EDGE('',*,*,#214,.F.);
#265=ORIENTED_EDGE('',*,*,#198,.F.);
#266=ORIENTED_EDGE('',*,*,#199,.T.);
#267=ORIENTED_EDGE('',*,*,#214,.T.);
#268=ORIENTED_EDGE('',*,*,#215,.T.);
#269=ORIENTED_EDGE('',*,*,#216,.T.);
#270=ORIENTED_EDGE('',*,*,#203,.T.);
#271=ORIENTED_EDGE('',*,*,#217,.T.);
#272=ORIENTED_EDGE('',*,*,#218,.T.);
#273=ORIENTED_EDGE('',*,*,#219,.T.);
#274=ORIENTED_EDGE('',*,*,#196,.F.);
#275=ORIENTED_EDGE('',*,*,#220,.F.);
#276=ORIENTED_EDGE('',*,*,#218,.F.);
#277=ORIENTED_EDGE('',*,*,#221,.F.);
#278=ORIENTED_EDGE('',*,*,#222,.F.);
#279=ORIENTED_EDGE('',*,*,#223,.F.);
#280=ORIENTED_EDGE('',*,*,#215,.F.);
#281=ORIENTED_EDGE('',*,*,#213,.F.);
#282=ORIENTED_EDGE('',*,*,#224,.T.);
#283=ORIENTED_EDGE('',*,*,#225,.T.);
#284=ORIENTED_EDGE('',*,*,#226,.T.);
#285=ORIENTED_EDGE('',*,*,#227,.T.);
#286=ORIENTED_EDGE('',*,*,#217,.F.);
#287=ORIENTED_EDGE('',*,*,#202,.F.);
#288=ORIENTED_EDGE('',*,*,#228,.F.);
#289=ORIENTED_EDGE('',*,*,#221,.T.);
#290=ORIENTED_EDGE('',*,*,#201,.T.);
#291=ORIENTED_EDGE('',*,*,#229,.T.);
#292=ORIENTED_EDGE('',*,*,#222,.T.);
#293=ORIENTED_EDGE('',*,*,#228,.T.);
#294=ORIENTED_EDGE('',*,*,#230,.F.);
#295=ORIENTED_EDGE('',*,*,#231,.T.);
#296=ORIENTED_EDGE('',*,*,#209,.F.);
#297=ORIENTED_EDGE('',*,*,#232,.F.);
#298=ORIENTED_EDGE('',*,*,#233,.F.);
#299=ORIENTED_EDGE('',*,*,#234,.T.);
#300=ORIENTED_EDGE('',*,*,#210,.F.);
#301=ORIENTED_EDGE('',*,*,#231,.F.);
#302=ORIENTED_EDGE('',*,*,#212,.F.);
#303=ORIENTED_EDGE('',*,*,#235,.T.);
#304=ORIENTED_EDGE('',*,*,#225,.F.);
#305=ORIENTED_EDGE('',*,*,#235,.F.);
#306=ORIENTED_EDGE('',*,*,#211,.F.);
#307=ORIENTED_EDGE('',*,*,#236,.T.);
#308=ORIENTED_EDGE('',*,*,#224,.F.);
#309=ORIENTED_EDGE('',*,*,#236,.F.);
#310=ORIENTED_EDGE('',*,*,#206,.F.);
#311=ORIENTED_EDGE('',*,*,#237,.T.);
#312=ORIENTED_EDGE('',*,*,#227,.F.);
#313=ORIENTED_EDGE('',*,*,#237,.F.);
#314=ORIENTED_EDGE('',*,*,#205,.F.);
#315=ORIENTED_EDGE('',*,*,#238,.T.);
#316=ORIENTED_EDGE('',*,*,#226,.F.);
#317=ORIENTED_EDGE('',*,*,#238,.F.);
#318=ORIENTED_EDGE('',*,*,#239,.F.);
#319=ORIENTED_EDGE('',*,*,#232,.T.);
#320=ORIENTED_EDGE('',*,*,#208,.F.);
#321=ORIENTED_EDGE('',*,*,#240,.F.);
#322=ORIENTED_EDGE('',*,*,#241,.F.);
#323=ORIENTED_EDGE('',*,*,#240,.T.);
#324=ORIENTED_EDGE('',*,*,#207,.F.);
#325=ORIENTED_EDGE('',*,*,#234,.F.);
#326=ORIENTED_EDGE('',*,*,#233,.T.);
#327=ORIENTED_EDGE('',*,*,#230,.T.);
#328=ORIENTED_EDGE('',*,*,#239,.T.);
#329=ORIENTED_EDGE('',*,*,#241,.T.);
#330=ORIENTED_EDGE('',*,*,#216,.F.);
#331=ORIENTED_EDGE('',*,*,#223,.T.);
#332=ORIENTED_EDGE('',*,*,#229,.F.);
#333=ORIENTED_EDGE('',*,*,#200,.F.);
#334=ORIENTED_EDGE('',*,*,#195,.F.);
#335=ORIENTED_EDGE('',*,*,#204,.F.);
#336=ORIENTED_EDGE('',*,*,#219,.F.);
#337=ORIENTED_EDGE('',*,*,#220,.T.);
#338=CYLINDRICAL_SURFACE('',#379,5.);
#339=CYLINDRICAL_SURFACE('',#391,5.);
#340=CYLINDRICAL_SURFACE('',#393,5.);
#341=CYLINDRICAL_SURFACE('',#402,5.);
#342=CYLINDRICAL_SURFACE('',#405,1.45);
#343=CYLINDRICAL_SURFACE('',#406,1.45);
#344=CYLINDRICAL_SURFACE('',#407,1.45);
#345=CYLINDRICAL_SURFACE('',#408,1.45);
#346=ADVANCED_FACE('',(#35),#338,.T.);
#347=ADVANCED_FACE('',(#36,#15,#16,#17,#18,#19),#24,.T.);
#348=ADVANCED_FACE('',(#37),#25,.T.);
#349=ADVANCED_FACE('',(#38),#339,.T.);
#350=ADVANCED_FACE('',(#39),#340,.T.);
#351=ADVANCED_FACE('',(#40,#20,#21,#22,#23),#26,.F.);
#352=ADVANCED_FACE('',(#41),#27,.T.);
#353=ADVANCED_FACE('',(#42),#341,.T.);
#354=ADVANCED_FACE('',(#43),#28,.T.);
#355=ADVANCED_FACE('',(#44),#29,.T.);
#356=ADVANCED_FACE('',(#45),#342,.F.);
#357=ADVANCED_FACE('',(#46),#343,.F.);
#358=ADVANCED_FACE('',(#47),#344,.F.);
#359=ADVANCED_FACE('',(#48),#345,.F.);
#360=ADVANCED_FACE('',(#49),#30,.T.);
#361=ADVANCED_FACE('',(#50),#31,.T.);
#362=ADVANCED_FACE('',(#51),#32,.T.);
#363=ADVANCED_FACE('',(#52),#33,.T.);
#364=ADVANCED_FACE('',(#53),#34,.T.);
#365=CLOSED_SHELL('',(#346,#347,#348,#349,#350,#351,#352,#353,#354,#355,
#356,#357,#358,#359,#360,#361,#362,#363,#364));
#366=DERIVED_UNIT_ELEMENT(#368,1.);
#367=DERIVED_UNIT_ELEMENT(#623,-3.);
#368=(
MASS_UNIT()
NAMED_UNIT(*)
SI_UNIT(.KILO.,.GRAM.)
);
#369=DERIVED_UNIT((#366,#367));
#370=MEASURE_REPRESENTATION_ITEM('density measure',
POSITIVE_RATIO_MEASURE(7850.),#369);
#371=PROPERTY_DEFINITION_REPRESENTATION(#376,#373);
#372=PROPERTY_DEFINITION_REPRESENTATION(#377,#374);
#373=REPRESENTATION('material name',(#375),#620);
#374=REPRESENTATION('density',(#370),#620);
#375=DESCRIPTIVE_REPRESENTATION_ITEM('Steel','Steel');
#376=PROPERTY_DEFINITION('material property','material name',#630);
#377=PROPERTY_DEFINITION('material property','density of part',#630);
#378=AXIS2_PLACEMENT_3D('',#518,#414,#415);
#379=AXIS2_PLACEMENT_3D('',#519,#416,#417);
#380=AXIS2_PLACEMENT_3D('',#522,#418,#419);
#381=AXIS2_PLACEMENT_3D('',#526,#421,#422);
#382=AXIS2_PLACEMENT_3D('',#528,#424,#425);
#383=AXIS2_PLACEMENT_3D('',#532,#427,#428);
#384=AXIS2_PLACEMENT_3D('',#536,#430,#431);
#385=AXIS2_PLACEMENT_3D('',#540,#433,#434);
#386=AXIS2_PLACEMENT_3D('',#543,#436,#437);
#387=AXIS2_PLACEMENT_3D('',#545,#438,#439);
#388=AXIS2_PLACEMENT_3D('',#555,#444,#445);
#389=AXIS2_PLACEMENT_3D('',#557,#446,#447);
#390=AXIS2_PLACEMENT_3D('',#558,#448,#449);
#391=AXIS2_PLACEMENT_3D('',#562,#452,#453);
#392=AXIS2_PLACEMENT_3D('',#564,#454,#455);
#393=AXIS2_PLACEMENT_3D('',#566,#457,#458);
#394=AXIS2_PLACEMENT_3D('',#570,#460,#461);
#395=AXIS2_PLACEMENT_3D('',#572,#463,#464);
#396=AXIS2_PLACEMENT_3D('',#577,#467,#468);
#397=AXIS2_PLACEMENT_3D('',#580,#470,#471);
#398=AXIS2_PLACEMENT_3D('',#582,#472,#473);
#399=AXIS2_PLACEMENT_3D('',#584,#474,#475);
#400=AXIS2_PLACEMENT_3D('',#586,#476,#477);
#401=AXIS2_PLACEMENT_3D('',#587,#478,#479);
#402=AXIS2_PLACEMENT_3D('',#589,#481,#482);
#403=AXIS2_PLACEMENT_3D('',#591,#484,#485);
#404=AXIS2_PLACEMENT_3D('',#597,#489,#490);
#405=AXIS2_PLACEMENT_3D('',#601,#493,#494);
#406=AXIS2_PLACEMENT_3D('',#603,#496,#497);
#407=AXIS2_PLACEMENT_3D('',#605,#499,#500);
#408=AXIS2_PLACEMENT_3D('',#607,#502,#503);
#409=AXIS2_PLACEMENT_3D('',#609,#505,#506);
#410=AXIS2_PLACEMENT_3D('',#613,#509,#510);
#411=AXIS2_PLACEMENT_3D('',#615,#512,#513);
#412=AXIS2_PLACEMENT_3D('',#616,#514,#515);
#413=AXIS2_PLACEMENT_3D('',#617,#516,#517);
#414=DIRECTION('axis',(0.,0.,1.));
#415=DIRECTION('refdir',(1.,0.,0.));
#416=DIRECTION('center_axis',(0.,1.,0.));
#417=DIRECTION('ref_axis',(-0.707106781186547,0.,-0.707106781186547));
#418=DIRECTION('center_axis',(0.,-1.,0.));
#419=DIRECTION('ref_axis',(-0.707106781186547,0.,-0.707106781186547));
#420=DIRECTION('',(0.,-1.,0.));
#421=DIRECTION('center_axis',(0.,1.,0.));
#422=DIRECTION('ref_axis',(-0.707106781186547,0.,-0.707106781186547));
#423=DIRECTION('',(0.,1.,0.));
#424=DIRECTION('center_axis',(0.,1.,0.));
#425=DIRECTION('ref_axis',(1.,0.,0.));
#426=DIRECTION('',(0.,0.,1.));
#427=DIRECTION('center_axis',(0.,-1.,0.));
#428=DIRECTION('ref_axis',(-0.707106781186547,0.,0.707106781186547));
#429=DIRECTION('',(1.,0.,-1.94137359497295E-16));
#430=DIRECTION('center_axis',(0.,-1.,0.));
#431=DIRECTION('ref_axis',(0.707106781186547,0.,0.707106781186547));
#432=DIRECTION('',(-8.18597621843434E-17,0.,-1.));
#433=DIRECTION('center_axis',(0.,-1.,0.));
#434=DIRECTION('ref_axis',(0.707106781186547,0.,-0.707106781186547));
#435=DIRECTION('',(-1.,0.,-1.94137359497295E-16));
#436=DIRECTION('center_axis',(0.,-1.,0.));
#437=DIRECTION('ref_axis',(1.,0.,0.));
#438=DIRECTION('center_axis',(0.,-1.,0.));
#439=DIRECTION('ref_axis',(1.,0.,0.));
#440=DIRECTION('',(1.,0.,0.));
#441=DIRECTION('',(1.00359143468941E-16,0.,1.));
#442=DIRECTION('',(-1.,0.,1.24220758000017E-16));
#443=DIRECTION('',(-1.00359143468941E-16,0.,-1.));
#444=DIRECTION('center_axis',(0.,-1.,0.));
#445=DIRECTION('ref_axis',(1.,0.,0.));
#446=DIRECTION('center_axis',(0.,-1.,0.));
#447=DIRECTION('ref_axis',(1.,0.,0.));
#448=DIRECTION('center_axis',(-1.,0.,0.));
#449=DIRECTION('ref_axis',(0.,0.,1.));
#450=DIRECTION('',(0.,0.,1.));
#451=DIRECTION('',(0.,-1.,0.));
#452=DIRECTION('center_axis',(0.,1.,0.));
#453=DIRECTION('ref_axis',(-0.707106781186547,0.,0.707106781186547));
#454=DIRECTION('center_axis',(0.,1.,0.));
#455=DIRECTION('ref_axis',(-0.707106781186547,0.,0.707106781186547));
#456=DIRECTION('',(0.,1.,0.));
#457=DIRECTION('center_axis',(0.,1.,0.));
#458=DIRECTION('ref_axis',(0.707106781186547,0.,-0.707106781186547));
#459=DIRECTION('',(0.,-1.,0.));
#460=DIRECTION('center_axis',(0.,1.,0.));
#461=DIRECTION('ref_axis',(0.707106781186547,0.,-0.707106781186547));
#462=DIRECTION('',(0.,1.,0.));
#463=DIRECTION('center_axis',(0.,1.,0.));
#464=DIRECTION('ref_axis',(1.,0.,0.));
#465=DIRECTION('',(-1.,0.,-1.94137359497295E-16));
#466=DIRECTION('',(-8.18597621843434E-17,0.,-1.));
#467=DIRECTION('center_axis',(0.,1.,0.));
#468=DIRECTION('ref_axis',(0.707106781186547,0.,0.707106781186547));
#469=DIRECTION('',(1.,0.,-1.94137359497295E-16));
#470=DIRECTION('center_axis',(0.,1.,0.));
#471=DIRECTION('ref_axis',(1.,0.,0.));
#472=DIRECTION('center_axis',(0.,1.,0.));
#473=DIRECTION('ref_axis',(1.,0.,0.));
#474=DIRECTION('center_axis',(0.,1.,0.));
#475=DIRECTION('ref_axis',(1.,0.,0.));
#476=DIRECTION('center_axis',(0.,1.,0.));
#477=DIRECTION('ref_axis',(1.,0.,0.));
#478=DIRECTION('center_axis',(1.,0.,-8.18597621843434E-17));
#479=DIRECTION('ref_axis',(-8.18597621843434E-17,0.,-1.));
#480=DIRECTION('',(0.,1.,0.));
#481=DIRECTION('center_axis',(0.,1.,0.));
#482=DIRECTION('ref_axis',(0.707106781186547,0.,0.707106781186547));
#483=DIRECTION('',(0.,-1.,0.));
#484=DIRECTION('center_axis',(-1.24220758000017E-16,0.,-1.));
#485=DIRECTION('ref_axis',(-1.,0.,1.24220758000017E-16));
#486=DIRECTION('',(1.,0.,-1.24220758000017E-16));
#487=DIRECTION('',(0.,1.,0.));
#488=DIRECTION('',(0.,1.,0.));
#489=DIRECTION('center_axis',(1.,0.,-1.00359143468941E-16));
#490=DIRECTION('ref_axis',(-1.00359143468941E-16,0.,-1.));
#491=DIRECTION('',(1.00359143468941E-16,0.,1.));
#492=DIRECTION('',(0.,1.,0.));
#493=DIRECTION('center_axis',(0.,1.,0.));
#494=DIRECTION('ref_axis',(1.,0.,0.));
#495=DIRECTION('',(0.,-1.,0.));
#496=DIRECTION('center_axis',(0.,1.,0.));
#497=DIRECTION('ref_axis',(1.,0.,0.));
#498=DIRECTION('',(0.,-1.,0.));
#499=DIRECTION('center_axis',(0.,1.,0.));
#500=DIRECTION('ref_axis',(1.,0.,0.));
#501=DIRECTION('',(0.,-1.,0.));
#502=DIRECTION('center_axis',(0.,1.,0.));
#503=DIRECTION('ref_axis',(1.,0.,0.));
#504=DIRECTION('',(0.,-1.,0.));
#505=DIRECTION('center_axis',(-1.,0.,1.00359143468941E-16));
#506=DIRECTION('ref_axis',(1.00359143468941E-16,0.,1.));
#507=DIRECTION('',(-1.00359143468941E-16,0.,-1.));
#508=DIRECTION('',(0.,1.,0.));
#509=DIRECTION('center_axis',(0.,0.,1.));
#510=DIRECTION('ref_axis',(1.,0.,0.));
#511=DIRECTION('',(-1.,0.,0.));
#512=DIRECTION('center_axis',(0.,1.,0.));
#513=DIRECTION('ref_axis',(0.,0.,1.));
#514=DIRECTION('center_axis',(1.94137359497295E-16,0.,1.));
#515=DIRECTION('ref_axis',(1.,0.,-1.94137359497295E-16));
#516=DIRECTION('center_axis',(1.94137359497295E-16,0.,-1.));
#517=DIRECTION('ref_axis',(-1.,0.,-1.94137359497295E-16));
#518=CARTESIAN_POINT('',(0.,0.,0.));
#519=CARTESIAN_POINT('Origin',(-40.75,0.,-49.25));
#520=CARTESIAN_POINT('',(-45.75,13.,-49.25));
#521=CARTESIAN_POINT('',(-40.75,13.,-54.25));
#522=CARTESIAN_POINT('Origin',(-40.75,13.,-49.25));
#523=CARTESIAN_POINT('',(-40.75,0.,-54.25));
#524=CARTESIAN_POINT('',(-40.75,0.,-54.25));
#525=CARTESIAN_POINT('',(-45.75,0.,-49.25));
#526=CARTESIAN_POINT('Origin',(-40.75,0.,-49.25));
#527=CARTESIAN_POINT('',(-45.75,0.,-49.25));
#528=CARTESIAN_POINT('Origin',(0.,13.,8.88178419700125E-15));
#529=CARTESIAN_POINT('',(-45.75,13.,49.25));
#530=CARTESIAN_POINT('',(-45.75,13.,-54.25));
#531=CARTESIAN_POINT('',(-40.75,13.,54.25));
#532=CARTESIAN_POINT('Origin',(-40.75,13.,49.25));
#533=CARTESIAN_POINT('',(40.75,13.,54.25));
#534=CARTESIAN_POINT('',(-45.75,13.,54.25));
#535=CARTESIAN_POINT('',(45.75,13.,49.25));
#536=CARTESIAN_POINT('Origin',(40.75,13.,49.25));
#537=CARTESIAN_POINT('',(45.75,13.,-49.25));
#538=CARTESIAN_POINT('',(45.75,13.,54.25));
#539=CARTESIAN_POINT('',(40.75,13.,-54.25));
#540=CARTESIAN_POINT('Origin',(40.75,13.,-49.25));
#541=CARTESIAN_POINT('',(45.75,13.,-54.25));
#542=CARTESIAN_POINT('',(39.3,13.,49.25));
#543=CARTESIAN_POINT('Origin',(40.75,13.,49.25));
#544=CARTESIAN_POINT('',(39.3,13.,-49.25));
#545=CARTESIAN_POINT('Origin',(40.75,13.,-49.25));
#546=CARTESIAN_POINT('',(-35.75,13.,-44.25));
#547=CARTESIAN_POINT('',(35.75,13.,-44.25));
#548=CARTESIAN_POINT('',(-35.75,13.,-44.25));
#549=CARTESIAN_POINT('',(35.75,13.,44.25));
#550=CARTESIAN_POINT('',(35.75,13.,-44.25));
#551=CARTESIAN_POINT('',(-35.75,13.,44.25));
#552=CARTESIAN_POINT('',(35.75,13.,44.25));
#553=CARTESIAN_POINT('',(-35.75,13.,44.25));
#554=CARTESIAN_POINT('',(-42.2,13.,49.25));
#555=CARTESIAN_POINT('Origin',(-40.75,13.,49.25));
#556=CARTESIAN_POINT('',(-42.2,13.,-49.25));
#557=CARTESIAN_POINT('Origin',(-40.75,13.,-49.25));
#558=CARTESIAN_POINT('Origin',(-45.75,0.,-54.25));
#559=CARTESIAN_POINT('',(-45.75,0.,49.25));
#560=CARTESIAN_POINT('',(-45.75,0.,-54.25));
#561=CARTESIAN_POINT('',(-45.75,0.,49.25));
#562=CARTESIAN_POINT('Origin',(-40.75,0.,49.25));
#563=CARTESIAN_POINT('',(-40.75,0.,54.25));
#564=CARTESIAN_POINT('Origin',(-40.75,0.,49.25));
#565=CARTESIAN_POINT('',(-40.75,0.,54.25));
#566=CARTESIAN_POINT('Origin',(40.75,0.,-49.25));
#567=CARTESIAN_POINT('',(45.75,0.,-49.25));
#568=CARTESIAN_POINT('',(45.75,0.,-49.25));
#569=CARTESIAN_POINT('',(40.75,0.,-54.25));
#570=CARTESIAN_POINT('Origin',(40.75,0.,-49.25));
#571=CARTESIAN_POINT('',(40.75,0.,-54.25));
#572=CARTESIAN_POINT('Origin',(0.,0.,8.88178419700125E-15));
#573=CARTESIAN_POINT('',(45.75,0.,-54.25));
#574=CARTESIAN_POINT('',(45.75,0.,49.25));
#575=CARTESIAN_POINT('',(45.75,0.,54.25));
#576=CARTESIAN_POINT('',(40.75,0.,54.25));
#577=CARTESIAN_POINT('Origin',(40.75,0.,49.25));
#578=CARTESIAN_POINT('',(-45.75,0.,54.25));
#579=CARTESIAN_POINT('',(-42.2,0.,49.25));
#580=CARTESIAN_POINT('Origin',(-40.75,0.,49.25));
#581=CARTESIAN_POINT('',(-42.2,0.,-49.25));
#582=CARTESIAN_POINT('Origin',(-40.75,0.,-49.25));
#583=CARTESIAN_POINT('',(39.3,0.,49.25));
#584=CARTESIAN_POINT('Origin',(40.75,0.,49.25));
#585=CARTESIAN_POINT('',(39.3,0.,-49.25));
#586=CARTESIAN_POINT('Origin',(40.75,0.,-49.25));
#587=CARTESIAN_POINT('Origin',(45.75,0.,54.25));
#588=CARTESIAN_POINT('',(45.75,0.,49.25));
#589=CARTESIAN_POINT('Origin',(40.75,0.,49.25));
#590=CARTESIAN_POINT('',(40.75,0.,54.25));
#591=CARTESIAN_POINT('Origin',(35.75,0.,44.25));
#592=CARTESIAN_POINT('',(-35.75,3.,44.25));
#593=CARTESIAN_POINT('',(35.75,3.,44.25));
#594=CARTESIAN_POINT('',(17.875,3.,44.25));
#595=CARTESIAN_POINT('',(-35.75,0.,44.25));
#596=CARTESIAN_POINT('',(35.75,0.,44.25));
#597=CARTESIAN_POINT('Origin',(-35.75,0.,44.25));
#598=CARTESIAN_POINT('',(-35.75,3.,-44.25));
#599=CARTESIAN_POINT('',(-35.75,3.,22.125));
#600=CARTESIAN_POINT('',(-35.75,0.,-44.25));
#601=CARTESIAN_POINT('Origin',(-40.75,0.,-49.25));
#602=CARTESIAN_POINT('',(-42.2,0.,-49.25));
#603=CARTESIAN_POINT('Origin',(-40.75,0.,49.25));
#604=CARTESIAN_POINT('',(-42.2,0.,49.25));
#605=CARTESIAN_POINT('Origin',(40.75,0.,-49.25));
#606=CARTESIAN_POINT('',(39.3,0.,-49.25));
#607=CARTESIAN_POINT('Origin',(40.75,0.,49.25));
#608=CARTESIAN_POINT('',(39.3,0.,49.25));
#609=CARTESIAN_POINT('Origin',(35.75,0.,-44.25));
#610=CARTESIAN_POINT('',(35.75,3.,-44.25));
#611=CARTESIAN_POINT('',(35.75,3.,-22.125));
#612=CARTESIAN_POINT('',(35.75,0.,-44.25));
#613=CARTESIAN_POINT('Origin',(-35.75,0.,-44.25));
#614=CARTESIAN_POINT('',(-17.875,3.,-44.25));
#615=CARTESIAN_POINT('Origin',(0.,3.,8.88178419700125E-15));
#616=CARTESIAN_POINT('Origin',(-45.75,0.,54.25));
#617=CARTESIAN_POINT('Origin',(45.75,0.,-54.25));
#618=UNCERTAINTY_MEASURE_WITH_UNIT(LENGTH_MEASURE(0.01),#622,
'DISTANCE_ACCURACY_VALUE',
'Maximum model space distance between geometric entities at asserted c
onnectivities');
#619=UNCERTAINTY_MEASURE_WITH_UNIT(LENGTH_MEASURE(0.01),#622,
'DISTANCE_ACCURACY_VALUE',
'Maximum model space distance between geometric entities at asserted c
onnectivities');
#620=(
GEOMETRIC_REPRESENTATION_CONTEXT(3)
GLOBAL_UNCERTAINTY_ASSIGNED_CONTEXT((#618))
GLOBAL_UNIT_ASSIGNED_CONTEXT((#622,#624,#625))
REPRESENTATION_CONTEXT('','3D')
);
#621=(
GEOMETRIC_REPRESENTATION_CONTEXT(3)
GLOBAL_UNCERTAINTY_ASSIGNED_CONTEXT((#619))
GLOBAL_UNIT_ASSIGNED_CONTEXT((#622,#624,#625))
REPRESENTATION_CONTEXT('','3D')
);
#622=(
LENGTH_UNIT()
NAMED_UNIT(*)
SI_UNIT(.MILLI.,.METRE.)
);
#623=(
LENGTH_UNIT()
NAMED_UNIT(*)
SI_UNIT($,.METRE.)
);
#624=(
NAMED_UNIT(*)
PLANE_ANGLE_UNIT()
SI_UNIT($,.RADIAN.)
);
#625=(
NAMED_UNIT(*)
SI_UNIT($,.STERADIAN.)
SOLID_ANGLE_UNIT()
);
#626=SHAPE_DEFINITION_REPRESENTATION(#627,#628);
#627=PRODUCT_DEFINITION_SHAPE('',$,#630);
#628=SHAPE_REPRESENTATION('',(#378),#620);
#629=PRODUCT_DEFINITION_CONTEXT('part definition',#634,'design');
#630=PRODUCT_DEFINITION('HackPad','HackPad v3',#631,#629);
#631=PRODUCT_DEFINITION_FORMATION('',$,#636);
#632=PRODUCT_RELATED_PRODUCT_CATEGORY('HackPad v3','HackPad v3',(#636));
#633=APPLICATION_PROTOCOL_DEFINITION('international standard',
'automotive_design',2009,#634);
#634=APPLICATION_CONTEXT(
'Core Data for Automotive Mechanical Design Process');
#635=PRODUCT_CONTEXT('part definition',#634,'mechanical');
#636=PRODUCT('HackPad','HackPad v3',$,(#635));
#637=PRESENTATION_STYLE_ASSIGNMENT((#640));
#638=PRESENTATION_STYLE_ASSIGNMENT((#641));
#639=PRESENTATION_STYLE_ASSIGNMENT((#642));
#640=SURFACE_STYLE_USAGE(.BOTH.,#643);
#641=SURFACE_STYLE_USAGE(.BOTH.,#644);
#642=SURFACE_STYLE_USAGE(.BOTH.,#645);
#643=SURFACE_SIDE_STYLE('',(#646));
#644=SURFACE_SIDE_STYLE('',(#647));
#645=SURFACE_SIDE_STYLE('',(#648));
#646=SURFACE_STYLE_FILL_AREA(#649);
#647=SURFACE_STYLE_FILL_AREA(#650);
#648=SURFACE_STYLE_FILL_AREA(#651);
#649=FILL_AREA_STYLE('Steel - Satin',(#652));
#650=FILL_AREA_STYLE('ABS (White)',(#653));
#651=FILL_AREA_STYLE('Paint - Enamel Glossy (Green)',(#654));
#652=FILL_AREA_STYLE_COLOUR('Steel - Satin',#655);
#653=FILL_AREA_STYLE_COLOUR('ABS (White)',#656);
#654=FILL_AREA_STYLE_COLOUR('Paint - Enamel Glossy (Green)',#657);
#655=COLOUR_RGB('Steel - Satin',0.627450980392157,0.627450980392157,0.627450980392157);
#656=COLOUR_RGB('ABS (White)',0.964705882352941,0.964705882352941,0.952941176470588);
#657=COLOUR_RGB('Paint - Enamel Glossy (Green)',0.266666666666667,0.588235294117647,
0.282352941176471);
ENDSEC;
END-ISO-10303-21;
